<mxfile host="65bd71144e">
    <diagram id="v_v_nc35iTQD7JaVhNnD" name="Page-1">
        <mxGraphModel dx="1388" dy="659" grid="1" gridSize="10" guides="1" tooltips="1" connect="1" arrows="1" fold="1" page="1" pageScale="1" pageWidth="827" pageHeight="1169" math="0" shadow="0">
            <root>
                <mxCell id="0"/>
                <mxCell id="1" parent="0"/>
                <mxCell id="21" style="edgeStyle=orthogonalEdgeStyle;html=1;exitX=1;exitY=0.5;exitDx=0;exitDy=0;entryX=0;entryY=0.5;entryDx=0;entryDy=0;" edge="1" parent="1" source="8" target="9">
                    <mxGeometry relative="1" as="geometry"/>
                </mxCell>
                <mxCell id="22" style="edgeStyle=orthogonalEdgeStyle;html=1;exitX=0;exitY=0.5;exitDx=0;exitDy=0;entryX=0;entryY=0.5;entryDx=0;entryDy=0;" edge="1" parent="1" source="13" target="2">
                    <mxGeometry relative="1" as="geometry">
                        <Array as="points">
                            <mxPoint x="40" y="210"/>
                            <mxPoint x="40" y="130"/>
                        </Array>
                    </mxGeometry>
                </mxCell>
                <mxCell id="23" value="" style="group" vertex="1" connectable="0" parent="1">
                    <mxGeometry x="80" y="120" width="320" height="60" as="geometry"/>
                </mxCell>
                <mxCell id="2" value="&lt;b&gt;:mo-po-creation-activity-1&lt;/b&gt;" style="rounded=0;whiteSpace=wrap;html=1;align=left;spacingLeft=2;" vertex="1" parent="23">
                    <mxGeometry width="320" height="20" as="geometry"/>
                </mxCell>
                <mxCell id="3" value="rdf:type" style="rounded=0;whiteSpace=wrap;html=1;align=left;spacingLeft=2;" vertex="1" parent="23">
                    <mxGeometry y="20" width="80" height="20" as="geometry"/>
                </mxCell>
                <mxCell id="4" value="ch-paf:MoPoCreationActivity" style="rounded=0;whiteSpace=wrap;html=1;align=left;spacingLeft=2;" vertex="1" parent="23">
                    <mxGeometry x="80" y="20" width="240" height="20" as="geometry"/>
                </mxCell>
                <mxCell id="5" value="" style="edgeStyle=none;html=1;spacingLeft=2;" edge="1" parent="23" source="3" target="4">
                    <mxGeometry relative="1" as="geometry"/>
                </mxCell>
                <mxCell id="6" value="prov:used" style="rounded=0;whiteSpace=wrap;html=1;align=left;spacingLeft=2;" vertex="1" parent="23">
                    <mxGeometry y="40" width="80" height="20" as="geometry"/>
                </mxCell>
                <mxCell id="8" value=":mo-po-entity-1" style="rounded=0;whiteSpace=wrap;html=1;align=left;spacingLeft=2;" vertex="1" parent="23">
                    <mxGeometry x="80" y="40" width="240" height="20" as="geometry"/>
                </mxCell>
                <mxCell id="25" value="" style="group" vertex="1" connectable="0" parent="1">
                    <mxGeometry x="440" y="160" width="320" height="120" as="geometry"/>
                </mxCell>
                <mxCell id="9" value="&lt;b&gt;:mo-po-entity-1&lt;/b&gt;" style="rounded=0;whiteSpace=wrap;html=1;align=left;spacingLeft=2;" vertex="1" parent="25">
                    <mxGeometry width="320" height="20" as="geometry"/>
                </mxCell>
                <mxCell id="11" value="rdf:type" style="rounded=0;whiteSpace=wrap;html=1;align=left;spacingLeft=2;" vertex="1" parent="25">
                    <mxGeometry y="20" width="130" height="20" as="geometry"/>
                </mxCell>
                <mxCell id="12" value="ch-paf:MoPoEntity" style="rounded=0;whiteSpace=wrap;html=1;align=left;spacingLeft=2;" vertex="1" parent="25">
                    <mxGeometry x="130" y="20" width="190" height="20" as="geometry"/>
                </mxCell>
                <mxCell id="10" value="" style="edgeStyle=none;html=1;spacingLeft=2;" edge="1" parent="25" source="11" target="12">
                    <mxGeometry relative="1" as="geometry"/>
                </mxCell>
                <mxCell id="13" value="prov:wasGeneratedBy" style="rounded=0;whiteSpace=wrap;html=1;align=left;spacingLeft=2;" vertex="1" parent="25">
                    <mxGeometry y="40" width="130" height="20" as="geometry"/>
                </mxCell>
                <mxCell id="14" value=":mo-po-creation-activity-1" style="rounded=0;whiteSpace=wrap;html=1;align=left;spacingLeft=2;" vertex="1" parent="25">
                    <mxGeometry x="130" y="40" width="190" height="20" as="geometry"/>
                </mxCell>
                <mxCell id="15" value="schema:identifier" style="rounded=0;whiteSpace=wrap;html=1;align=left;spacingLeft=2;" vertex="1" parent="25">
                    <mxGeometry y="60" width="130" height="20" as="geometry"/>
                </mxCell>
                <mxCell id="16" value="2019 P 18.3750" style="rounded=0;whiteSpace=wrap;html=1;align=left;spacingLeft=2;" vertex="1" parent="25">
                    <mxGeometry x="130" y="60" width="190" height="20" as="geometry"/>
                </mxCell>
                <mxCell id="17" value="schema:name" style="rounded=0;whiteSpace=wrap;html=1;align=left;spacingLeft=2;" vertex="1" parent="25">
                    <mxGeometry y="80" width="130" height="20" as="geometry"/>
                </mxCell>
                <mxCell id="18" value="VerstÃ¤rkte Regulierung der EU..." style="rounded=0;whiteSpace=wrap;html=1;align=left;spacingLeft=2;" vertex="1" parent="25">
                    <mxGeometry x="130" y="80" width="190" height="20" as="geometry"/>
                </mxCell>
                <mxCell id="19" value="schema:text" style="rounded=0;whiteSpace=wrap;html=1;align=left;spacingLeft=2;" vertex="1" parent="25">
                    <mxGeometry y="100" width="130" height="20" as="geometry"/>
                </mxCell>
                <mxCell id="20" value="Der Bundesrat wird gebeten..." style="rounded=0;whiteSpace=wrap;html=1;align=left;spacingLeft=2;" vertex="1" parent="25">
                    <mxGeometry x="130" y="100" width="190" height="20" as="geometry"/>
                </mxCell>
            </root>
        </mxGraphModel>
    </diagram>
</mxfile>